<?xml version="1.0" standalone="no"?>
<!DOCTYPE svg PUBLIC "-//W3C//DTD SVG 20010904//EN"
 "http://www.w3.org/TR/2001/REC-SVG-20010904/DTD/svg10.dtd">
<svg version="1.0" xmlns="http://www.w3.org/2000/svg"
 width="800.000000pt" height="800.000000pt" viewBox="0 0 800.000000 800.000000"
 preserveAspectRatio="xMidYMid meet">
<metadata>
Created by potrace 1.14, written by Peter Selinger 2001-2017
</metadata>
<g transform="translate(0.000000,800.000000) scale(0.100000,-0.100000)"
fill="#000000" stroke="none">
<path d="M3857 6805 c-1 -2 -45 -5 -97 -9 -52 -3 -104 -8 -115 -10 -11 -2 -41
-6 -66 -10 -397 -58 -783 -206 -1119 -432 -69 -46 -138 -94 -153 -106 -242
-194 -407 -367 -569 -593 -58 -81 -80 -115 -142 -218 -48 -81 -148 -294 -190
-404 -59 -157 -119 -380 -140 -528 -4 -23 -9 -52 -11 -65 -21 -101 -28 -498
-12 -657 79 -809 532 -1560 1213 -2011 150 -100 144 -97 266 -160 140 -73 333
-151 463 -188 33 -9 60 -16 60 -15 0 1 12 -2 28 -8 15 -6 38 -13 50 -15 143
-31 221 -46 266 -51 30 -4 63 -9 75 -11 108 -21 514 -21 647 1 13 2 56 8 94
14 155 24 231 41 382 87 1024 309 1782 1199 1929 2264 20 146 26 492 12 635
-59 575 -287 1107 -661 1540 -179 208 -466 446 -693 576 -74 43 -259 136 -304
153 -25 10 -58 24 -75 31 -115 53 -443 141 -600 161 -16 2 -41 6 -55 8 -65 13
-471 30 -483 21z"/>
</g>
</svg>
